<mxfile host="app.diagrams.net" modified="2022-10-25T09:54:10.192Z" agent="5.0 (Windows NT 10.0; Win64; x64) AppleWebKit/537.36 (KHTML, like Gecko) Chrome/106.0.0.0 Safari/537.36" etag="Vm6Fti4L2M8hufnkKd6m" version="20.5.1" type="github">
  <diagram id="x-YCI8xqHcP7njQyYqwb" name="第 1 页">
    <mxGraphModel dx="687" dy="392" grid="1" gridSize="10" guides="1" tooltips="1" connect="1" arrows="1" fold="1" page="1" pageScale="1" pageWidth="827" pageHeight="1169" math="0" shadow="0">
      <root>
        <mxCell id="0" />
        <mxCell id="1" parent="0" />
        <mxCell id="DL2LRz8JCnyerhkbF10D-12" style="edgeStyle=orthogonalEdgeStyle;rounded=0;orthogonalLoop=1;jettySize=auto;html=1;entryX=0;entryY=0.375;entryDx=0;entryDy=0;entryPerimeter=0;" edge="1" parent="1" source="DL2LRz8JCnyerhkbF10D-1" target="DL2LRz8JCnyerhkbF10D-6">
          <mxGeometry relative="1" as="geometry" />
        </mxCell>
        <mxCell id="DL2LRz8JCnyerhkbF10D-1" value="IOU&lt;br&gt;Match" style="rounded=0;whiteSpace=wrap;html=1;fillColor=#d5e8d4;strokeColor=#82b366;" vertex="1" parent="1">
          <mxGeometry x="290" y="311.25" width="80" height="50" as="geometry" />
        </mxCell>
        <mxCell id="DL2LRz8JCnyerhkbF10D-15" style="edgeStyle=orthogonalEdgeStyle;rounded=0;orthogonalLoop=1;jettySize=auto;html=1;entryX=0;entryY=0.475;entryDx=0;entryDy=0;entryPerimeter=0;" edge="1" parent="1" source="DL2LRz8JCnyerhkbF10D-2" target="DL2LRz8JCnyerhkbF10D-1">
          <mxGeometry relative="1" as="geometry" />
        </mxCell>
        <mxCell id="DL2LRz8JCnyerhkbF10D-2" value="Detector" style="rounded=0;whiteSpace=wrap;html=1;fillColor=#cce5ff;strokeColor=#36393d;" vertex="1" parent="1">
          <mxGeometry x="190" y="310" width="70" height="51.25" as="geometry" />
        </mxCell>
        <mxCell id="DL2LRz8JCnyerhkbF10D-6" value="Unmatched Detections" style="rounded=0;whiteSpace=wrap;html=1;" vertex="1" parent="1">
          <mxGeometry x="400" y="321.25" width="70" height="40" as="geometry" />
        </mxCell>
        <mxCell id="DL2LRz8JCnyerhkbF10D-7" value="matched Tracks" style="rounded=0;whiteSpace=wrap;html=1;" vertex="1" parent="1">
          <mxGeometry x="400" y="370" width="70" height="40" as="geometry" />
        </mxCell>
        <mxCell id="DL2LRz8JCnyerhkbF10D-8" value="Unmatched Tracks" style="rounded=0;whiteSpace=wrap;html=1;" vertex="1" parent="1">
          <mxGeometry x="400" y="270" width="70" height="40" as="geometry" />
        </mxCell>
        <mxCell id="DL2LRz8JCnyerhkbF10D-13" value="" style="endArrow=classic;html=1;rounded=0;entryX=0;entryY=0.5;entryDx=0;entryDy=0;" edge="1" parent="1" target="DL2LRz8JCnyerhkbF10D-8">
          <mxGeometry width="50" height="50" relative="1" as="geometry">
            <mxPoint x="380" y="336" as="sourcePoint" />
            <mxPoint x="400" y="297.25" as="targetPoint" />
            <Array as="points">
              <mxPoint x="380" y="290" />
            </Array>
          </mxGeometry>
        </mxCell>
        <mxCell id="DL2LRz8JCnyerhkbF10D-14" style="edgeStyle=orthogonalEdgeStyle;rounded=0;orthogonalLoop=1;jettySize=auto;html=1;entryX=0;entryY=0.5;entryDx=0;entryDy=0;" edge="1" parent="1">
          <mxGeometry relative="1" as="geometry">
            <mxPoint x="380" y="336" as="sourcePoint" />
            <mxPoint x="400" y="386.00000000000006" as="targetPoint" />
            <Array as="points">
              <mxPoint x="380" y="386" />
            </Array>
          </mxGeometry>
        </mxCell>
      </root>
    </mxGraphModel>
  </diagram>
</mxfile>
